<?xml version="1.0" encoding="utf-8" standalone="no"?>
<!DOCTYPE svg PUBLIC "-//W3C//DTD SVG 1.1//EN"
  "http://www.w3.org/Graphics/SVG/1.1/DTD/svg11.dtd">
<svg xmlns:xlink="http://www.w3.org/1999/xlink" width="303.547226pt" height="274.664094pt" viewBox="0 0 303.547226 274.664094" xmlns="http://www.w3.org/2000/svg" version="1.1">
 <metadata>
  <rdf:RDF xmlns:dc="http://purl.org/dc/elements/1.1/" xmlns:cc="http://creativecommons.org/ns#" xmlns:rdf="http://www.w3.org/1999/02/22-rdf-syntax-ns#">
   <cc:Work>
    <dc:type rdf:resource="http://purl.org/dc/dcmitype/StillImage"/>
    <dc:date>2022-01-06T16:14:41.037986</dc:date>
    <dc:format>image/svg+xml</dc:format>
    <dc:creator>
     <cc:Agent>
      <dc:title>Matplotlib v3.5.1, https://matplotlib.org/</dc:title>
     </cc:Agent>
    </dc:creator>
   </cc:Work>
  </rdf:RDF>
 </metadata>
 <defs>
  <style type="text/css">*{stroke-linejoin: round; stroke-linecap: butt}</style>
 </defs>
 <g id="figure_1">
  <g id="patch_1">
   <path d="M 0 274.664094 
L 303.547226 274.664094 
L 303.547226 0 
L 0 0 
z
" style="fill: #ffffff"/>
  </g>
  <g id="patch_2">
   <path d="M 40.965958 262.224 
L 295.989958 262.224 
L 295.989958 7.2 
L 40.965958 7.2 
z
" style="fill: #ffffff"/>
  </g>
  <g id="pane3d_1">
   <g id="patch_3">
    <path d="M 171.924229 126.95126 
L 285.432518 183.39774 
L 290.615545 76.753262 
L 171.924229 25.308407 
" style="fill: #f2f2f2; opacity: 0.5; stroke: #f2f2f2; stroke-linejoin: miter"/>
   </g>
  </g>
  <g id="pane3d_2">
   <g id="patch_4">
    <path d="M 171.924229 126.95126 
L 58.415939 183.39774 
L 53.232913 76.753262 
L 171.924229 25.308407 
" style="fill: #e6e6e6; opacity: 0.5; stroke: #e6e6e6; stroke-linejoin: miter"/>
   </g>
  </g>
  <g id="pane3d_3">
   <g id="patch_5">
    <path d="M 171.924229 126.95126 
L 58.415939 183.39774 
L 171.924229 248.512739 
L 285.432518 183.39774 
" style="fill: #ececec; opacity: 0.5; stroke: #ececec; stroke-linejoin: miter"/>
   </g>
  </g>
  <g id="axis3d_1">
   <g id="line2d_1">
    <path d="M 285.432518 183.39774 
L 171.924229 248.512739 
" style="fill: none; stroke: #000000; stroke-width: 0.8; stroke-linecap: square"/>
   </g>
   <g id="text_1">
    <!-- F1 -->
    <g transform="translate(248.370313 249.614278)scale(0.1 -0.1)">
     <defs>
      <path id="SimHei-46" d="M 2925 3925 
L 875 3925 
L 875 2525 
L 2425 2525 
L 2425 2050 
L 875 2050 
L 875 125 
L 300 125 
L 300 4400 
L 2925 4400 
L 2925 3925 
z
" transform="scale(0.015625)"/>
      <path id="SimHei-31" d="M 1400 3600 
Q 1075 3275 575 2975 
L 575 3450 
Q 1200 3875 1600 4450 
L 1900 4450 
L 1900 150 
L 1400 150 
L 1400 3600 
z
" transform="scale(0.015625)"/>
     </defs>
     <use xlink:href="#SimHei-46"/>
     <use xlink:href="#SimHei-31" x="50"/>
    </g>
   </g>
   <g id="Line3DCollection_1">
    <path d="M 278.693772 187.26348 
L 165.153095 130.318473 
L 164.864089 28.368511 
" style="fill: none; stroke: #b0b0b0; stroke-width: 0.8"/>
    <path d="M 259.891105 198.04979 
L 146.281763 139.702989 
L 145.173812 36.902948 
" style="fill: none; stroke: #b0b0b0; stroke-width: 0.8"/>
    <path d="M 240.606182 209.11275 
L 126.959541 149.311727 
L 124.992497 45.650216 
" style="fill: none; stroke: #b0b0b0; stroke-width: 0.8"/>
    <path d="M 220.820208 220.463143 
L 107.170075 159.152821 
L 104.301545 54.618379 
" style="fill: none; stroke: #b0b0b0; stroke-width: 0.8"/>
    <path d="M 200.513399 232.112318 
L 86.896208 169.234802 
L 83.081403 63.815911 
" style="fill: none; stroke: #b0b0b0; stroke-width: 0.8"/>
    <path d="M 179.664915 244.072229 
L 66.119935 179.566624 
L 61.311507 73.251724 
" style="fill: none; stroke: #b0b0b0; stroke-width: 0.8"/>
   </g>
   <g id="xtick_1">
    <g id="line2d_2">
     <path d="M 277.720936 186.775565 
L 280.642792 188.240988 
" style="fill: none; stroke: #000000; stroke-width: 0.8; stroke-linecap: square"/>
    </g>
    <g id="text_2">
     <!-- 0.0 -->
     <g transform="translate(281.347226 208.311697)scale(0.1 -0.1)">
      <defs>
       <path id="SimHei-30" d="M 225 2537 
Q 250 3200 412 3587 
Q 575 3975 875 4225 
Q 1175 4475 1612 4475 
Q 2050 4475 2375 4112 
Q 2700 3750 2800 3200 
Q 2900 2650 2862 1937 
Q 2825 1225 2612 775 
Q 2400 325 1975 150 
Q 1550 -25 1125 187 
Q 700 400 525 750 
Q 350 1100 275 1487 
Q 200 1875 225 2537 
z
M 750 2687 
Q 675 2000 800 1462 
Q 925 925 1212 700 
Q 1500 475 1800 612 
Q 2100 750 2237 1162 
Q 2375 1575 2375 2062 
Q 2375 2550 2337 2950 
Q 2300 3350 2112 3675 
Q 1925 4000 1612 4012 
Q 1300 4025 1062 3700 
Q 825 3375 750 2687 
z
" transform="scale(0.015625)"/>
       <path id="SimHei-2e" d="M 1075 125 
L 500 125 
L 500 675 
L 1075 675 
L 1075 125 
z
" transform="scale(0.015625)"/>
      </defs>
      <use xlink:href="#SimHei-30"/>
      <use xlink:href="#SimHei-2e" x="50"/>
      <use xlink:href="#SimHei-30" x="100"/>
     </g>
    </g>
   </g>
   <g id="xtick_2">
    <g id="line2d_3">
     <path d="M 258.916864 197.549445 
L 261.842983 199.052223 
" style="fill: none; stroke: #000000; stroke-width: 0.8; stroke-linecap: square"/>
    </g>
    <g id="text_3">
     <!-- 0.1 -->
     <g transform="translate(262.627546 219.304227)scale(0.1 -0.1)">
      <use xlink:href="#SimHei-30"/>
      <use xlink:href="#SimHei-2e" x="50"/>
      <use xlink:href="#SimHei-31" x="100"/>
     </g>
    </g>
   </g>
   <g id="xtick_3">
    <g id="line2d_4">
     <path d="M 239.630784 208.599494 
L 242.560424 210.141075 
" style="fill: none; stroke: #000000; stroke-width: 0.8; stroke-linecap: square"/>
    </g>
    <g id="text_4">
     <!-- 0.2 -->
     <g transform="translate(243.426551 230.579394)scale(0.1 -0.1)">
      <defs>
       <path id="SimHei-32" d="M 300 250 
Q 325 625 650 925 
Q 975 1225 1475 1862 
Q 1975 2500 2125 2850 
Q 2275 3200 2237 3450 
Q 2200 3700 2000 3862 
Q 1800 4025 1537 4000 
Q 1275 3975 1037 3800 
Q 800 3625 675 3275 
L 200 3350 
Q 400 3925 712 4187 
Q 1025 4450 1450 4475 
Q 1700 4500 1900 4462 
Q 2100 4425 2312 4287 
Q 2525 4150 2662 3875 
Q 2800 3600 2762 3212 
Q 2725 2825 2375 2287 
Q 2025 1750 1025 600 
L 2825 600 
L 2825 150 
L 300 150 
L 300 250 
z
" transform="scale(0.015625)"/>
      </defs>
      <use xlink:href="#SimHei-30"/>
      <use xlink:href="#SimHei-2e" x="50"/>
      <use xlink:href="#SimHei-32" x="100"/>
     </g>
    </g>
   </g>
   <g id="xtick_4">
    <g id="line2d_5">
     <path d="M 219.84392 219.936469 
L 222.776277 221.518375 
" style="fill: none; stroke: #000000; stroke-width: 0.8; stroke-linecap: square"/>
    </g>
    <g id="text_5">
     <!-- 0.3 -->
     <g transform="translate(223.725437 242.14824)scale(0.1 -0.1)">
      <defs>
       <path id="SimHei-33" d="M 250 1225 
L 700 1300 
Q 800 975 1025 762 
Q 1250 550 1587 562 
Q 1925 575 2125 837 
Q 2325 1100 2300 1437 
Q 2275 1775 2037 1962 
Q 1800 2150 1275 2225 
L 1275 2550 
Q 1800 2600 2037 2825 
Q 2275 3050 2250 3412 
Q 2225 3775 1925 3937 
Q 1625 4100 1287 3975 
Q 950 3850 750 3275 
L 300 3350 
Q 450 3800 712 4100 
Q 975 4400 1425 4450 
Q 1875 4500 2212 4337 
Q 2550 4175 2687 3837 
Q 2825 3500 2725 3100 
Q 2625 2700 2150 2400 
Q 2500 2250 2687 1950 
Q 2875 1650 2812 1162 
Q 2750 675 2375 375 
Q 2000 75 1525 87 
Q 1050 100 700 387 
Q 350 675 250 1225 
z
" transform="scale(0.015625)"/>
      </defs>
      <use xlink:href="#SimHei-30"/>
      <use xlink:href="#SimHei-2e" x="50"/>
      <use xlink:href="#SimHei-33" x="100"/>
     </g>
    </g>
   </g>
   <g id="xtick_5">
    <g id="line2d_6">
     <path d="M 199.536511 231.571693 
L 202.470714 233.195527 
" style="fill: none; stroke: #000000; stroke-width: 0.8; stroke-linecap: square"/>
    </g>
    <g id="text_6">
     <!-- 0.4 -->
     <g transform="translate(203.504405 254.022391)scale(0.1 -0.1)">
      <defs>
       <path id="SimHei-34" d="M 2000 1100 
L 75 1100 
L 75 1525 
L 2100 4450 
L 2475 4450 
L 2475 1525 
L 3075 1525 
L 3075 1100 
L 2475 1100 
L 2475 150 
L 2000 150 
L 2000 1100 
z
M 2000 1525 
L 2000 3500 
L 600 1525 
L 2000 1525 
z
" transform="scale(0.015625)"/>
      </defs>
      <use xlink:href="#SimHei-30"/>
      <use xlink:href="#SimHei-2e" x="50"/>
      <use xlink:href="#SimHei-34" x="100"/>
     </g>
    </g>
   </g>
   <g id="xtick_6">
    <g id="line2d_7">
     <path d="M 178.687743 243.517091 
L 181.622847 245.184542 
" style="fill: none; stroke: #000000; stroke-width: 0.8; stroke-linecap: square"/>
    </g>
    <g id="text_7">
     <!-- 0.5 -->
     <g transform="translate(182.7426 266.214094)scale(0.1 -0.1)">
      <defs>
       <path id="SimHei-35" d="M 550 1325 
Q 725 650 1150 575 
Q 1575 500 1837 662 
Q 2100 825 2212 1087 
Q 2325 1350 2312 1675 
Q 2300 2000 2137 2225 
Q 1975 2450 1725 2525 
Q 1475 2600 1162 2525 
Q 850 2450 650 2175 
L 225 2225 
Q 275 2375 700 4375 
L 2675 4375 
L 2675 3925 
L 1075 3925 
Q 950 3250 825 2850 
Q 1200 3025 1525 3012 
Q 1850 3000 2150 2862 
Q 2450 2725 2587 2487 
Q 2725 2250 2787 2012 
Q 2850 1775 2837 1500 
Q 2825 1225 2725 937 
Q 2625 650 2425 462 
Q 2225 275 1937 162 
Q 1650 50 1275 75 
Q 900 100 562 350 
Q 225 600 100 1200 
L 550 1325 
z
" transform="scale(0.015625)"/>
      </defs>
      <use xlink:href="#SimHei-30"/>
      <use xlink:href="#SimHei-2e" x="50"/>
      <use xlink:href="#SimHei-35" x="100"/>
     </g>
    </g>
   </g>
  </g>
  <g id="axis3d_2">
   <g id="line2d_8">
    <path d="M 58.415939 183.39774 
L 171.924229 248.512739 
" style="fill: none; stroke: #000000; stroke-width: 0.8; stroke-linecap: square"/>
   </g>
   <g id="text_8">
    <!-- F2 -->
    <g transform="translate(85.478144 249.614278)scale(0.1 -0.1)">
     <use xlink:href="#SimHei-46"/>
     <use xlink:href="#SimHei-32" x="50"/>
    </g>
   </g>
   <g id="Line3DCollection_2">
    <path d="M 178.984368 28.368511 
L 178.695362 130.318473 
L 65.154685 187.26348 
" style="fill: none; stroke: #b0b0b0; stroke-width: 0.8"/>
    <path d="M 198.674619 36.902936 
L 197.566669 139.702976 
L 83.957327 198.049775 
" style="fill: none; stroke: #b0b0b0; stroke-width: 0.8"/>
    <path d="M 218.855906 45.650193 
L 216.888865 149.311701 
L 103.242224 209.112721 
" style="fill: none; stroke: #b0b0b0; stroke-width: 0.8"/>
    <path d="M 239.54683 54.618343 
L 236.678304 159.152781 
L 123.028171 220.463098 
" style="fill: none; stroke: #b0b0b0; stroke-width: 0.8"/>
    <path d="M 260.766942 63.815862 
L 256.952142 169.234748 
L 143.334951 232.112256 
" style="fill: none; stroke: #b0b0b0; stroke-width: 0.8"/>
    <path d="M 282.536806 73.251662 
L 277.728385 179.566556 
L 164.183404 244.072149 
" style="fill: none; stroke: #b0b0b0; stroke-width: 0.8"/>
   </g>
   <g id="xtick_7">
    <g id="line2d_9">
     <path d="M 66.127521 186.775565 
L 63.205665 188.240988 
" style="fill: none; stroke: #000000; stroke-width: 0.8; stroke-linecap: square"/>
    </g>
    <g id="text_9">
     <!-- 0.0 -->
     <g transform="translate(47.501231 208.311697)scale(0.1 -0.1)">
      <use xlink:href="#SimHei-30"/>
      <use xlink:href="#SimHei-2e" x="50"/>
      <use xlink:href="#SimHei-30" x="100"/>
     </g>
    </g>
   </g>
   <g id="xtick_8">
    <g id="line2d_10">
     <path d="M 84.931568 197.549431 
L 82.005449 199.052209 
" style="fill: none; stroke: #000000; stroke-width: 0.8; stroke-linecap: square"/>
    </g>
    <g id="text_10">
     <!-- 0.1 -->
     <g transform="translate(66.220886 219.304213)scale(0.1 -0.1)">
      <use xlink:href="#SimHei-30"/>
      <use xlink:href="#SimHei-2e" x="50"/>
      <use xlink:href="#SimHei-31" x="100"/>
     </g>
    </g>
   </g>
   <g id="xtick_9">
    <g id="line2d_11">
     <path d="M 104.217623 208.599465 
L 101.287983 210.141046 
" style="fill: none; stroke: #000000; stroke-width: 0.8; stroke-linecap: square"/>
    </g>
    <g id="text_11">
     <!-- 0.2 -->
     <g transform="translate(85.421855 230.579364)scale(0.1 -0.1)">
      <use xlink:href="#SimHei-30"/>
      <use xlink:href="#SimHei-2e" x="50"/>
      <use xlink:href="#SimHei-32" x="100"/>
     </g>
    </g>
   </g>
   <g id="xtick_10">
    <g id="line2d_12">
     <path d="M 124.004459 219.936424 
L 121.072102 221.51833 
" style="fill: none; stroke: #000000; stroke-width: 0.8; stroke-linecap: square"/>
    </g>
    <g id="text_12">
     <!-- 0.3 -->
     <g transform="translate(105.122942 242.148194)scale(0.1 -0.1)">
      <use xlink:href="#SimHei-30"/>
      <use xlink:href="#SimHei-2e" x="50"/>
      <use xlink:href="#SimHei-33" x="100"/>
     </g>
    </g>
   </g>
   <g id="xtick_11">
    <g id="line2d_13">
     <path d="M 144.311839 231.571631 
L 141.377635 233.195465 
" style="fill: none; stroke: #000000; stroke-width: 0.8; stroke-linecap: square"/>
    </g>
    <g id="text_13">
     <!-- 0.4 -->
     <g transform="translate(125.343945 254.022328)scale(0.1 -0.1)">
      <use xlink:href="#SimHei-30"/>
      <use xlink:href="#SimHei-2e" x="50"/>
      <use xlink:href="#SimHei-34" x="100"/>
     </g>
    </g>
   </g>
   <g id="xtick_12">
    <g id="line2d_14">
     <path d="M 165.160576 243.517012 
L 162.225472 245.184463 
" style="fill: none; stroke: #000000; stroke-width: 0.8; stroke-linecap: square"/>
    </g>
    <g id="text_14">
     <!-- 0.5 -->
     <g transform="translate(146.10572 266.214013)scale(0.1 -0.1)">
      <use xlink:href="#SimHei-30"/>
      <use xlink:href="#SimHei-2e" x="50"/>
      <use xlink:href="#SimHei-35" x="100"/>
     </g>
    </g>
   </g>
  </g>
  <g id="axis3d_3">
   <g id="line2d_15">
    <path d="M 58.415939 183.39774 
L 53.232913 76.753262 
" style="fill: none; stroke: #000000; stroke-width: 0.8; stroke-linecap: square"/>
   </g>
   <g id="text_15">
    <!-- F3 -->
    <g transform="translate(7.2 134.07823)scale(0.1 -0.1)">
     <use xlink:href="#SimHei-46"/>
     <use xlink:href="#SimHei-33" x="50"/>
    </g>
   </g>
   <g id="Line3DCollection_3">
    <path d="M 58.316719 181.356207 
L 171.924229 124.999674 
L 285.531738 181.356207 
" style="fill: none; stroke: #b0b0b0; stroke-width: 0.8"/>
    <path d="M 57.355309 161.574501 
L 171.924229 106.10128 
L 286.493149 161.574501 
" style="fill: none; stroke: #b0b0b0; stroke-width: 0.8"/>
    <path d="M 56.377487 141.45513 
L 171.924229 86.90213 
L 287.47097 141.45513 
" style="fill: none; stroke: #b0b0b0; stroke-width: 0.8"/>
    <path d="M 55.382831 120.989374 
L 171.924229 67.394987 
L 288.465626 120.989374 
" style="fill: none; stroke: #b0b0b0; stroke-width: 0.8"/>
    <path d="M 54.370902 100.168209 
L 171.924229 47.572381 
L 289.477555 100.168209 
" style="fill: none; stroke: #b0b0b0; stroke-width: 0.8"/>
    <path d="M 53.341246 78.982297 
L 171.924229 27.426597 
L 290.507211 78.982297 
" style="fill: none; stroke: #b0b0b0; stroke-width: 0.8"/>
   </g>
   <g id="xtick_13">
    <g id="line2d_16">
     <path d="M 59.289891 180.873452 
L 56.367038 182.323373 
" style="fill: none; stroke: #000000; stroke-width: 0.8; stroke-linecap: square"/>
    </g>
    <g id="text_16">
     <!-- 0.0 -->
     <g transform="translate(31.144423 188.231207)scale(0.1 -0.1)">
      <use xlink:href="#SimHei-30"/>
      <use xlink:href="#SimHei-2e" x="50"/>
      <use xlink:href="#SimHei-30" x="100"/>
     </g>
    </g>
   </g>
   <g id="xtick_14">
    <g id="line2d_17">
     <path d="M 58.337264 161.099047 
L 55.388001 162.527054 
" style="fill: none; stroke: #000000; stroke-width: 0.8; stroke-linecap: square"/>
    </g>
    <g id="text_17">
     <!-- 0.1 -->
     <g transform="translate(30.016534 168.449501)scale(0.1 -0.1)">
      <use xlink:href="#SimHei-30"/>
      <use xlink:href="#SimHei-2e" x="50"/>
      <use xlink:href="#SimHei-31" x="100"/>
     </g>
    </g>
   </g>
   <g id="xtick_15">
    <g id="line2d_18">
     <path d="M 57.368386 140.987298 
L 54.392232 142.392427 
" style="fill: none; stroke: #000000; stroke-width: 0.8; stroke-linecap: square"/>
    </g>
    <g id="text_18">
     <!-- 0.2 -->
     <g transform="translate(28.869393 148.33013)scale(0.1 -0.1)">
      <use xlink:href="#SimHei-30"/>
      <use xlink:href="#SimHei-2e" x="50"/>
      <use xlink:href="#SimHei-32" x="100"/>
     </g>
    </g>
   </g>
   <g id="xtick_16">
    <g id="line2d_19">
     <path d="M 56.382838 120.529497 
L 53.3793 121.910746 
" style="fill: none; stroke: #000000; stroke-width: 0.8; stroke-linecap: square"/>
    </g>
    <g id="text_19">
     <!-- 0.3 -->
     <g transform="translate(27.702503 127.864374)scale(0.1 -0.1)">
      <use xlink:href="#SimHei-30"/>
      <use xlink:href="#SimHei-2e" x="50"/>
      <use xlink:href="#SimHei-33" x="100"/>
     </g>
    </g>
   </g>
   <g id="xtick_17">
    <g id="line2d_20">
     <path d="M 55.380184 99.716635 
L 52.348757 101.07296 
" style="fill: none; stroke: #000000; stroke-width: 0.8; stroke-linecap: square"/>
    </g>
    <g id="text_20">
     <!-- 0.4 -->
     <g transform="translate(26.515348 107.043209)scale(0.1 -0.1)">
      <use xlink:href="#SimHei-30"/>
      <use xlink:href="#SimHei-2e" x="50"/>
      <use xlink:href="#SimHei-34" x="100"/>
     </g>
    </g>
   </g>
   <g id="xtick_18">
    <g id="line2d_21">
     <path d="M 54.359976 78.539389 
L 51.300138 79.869699 
" style="fill: none; stroke: #000000; stroke-width: 0.8; stroke-linecap: square"/>
    </g>
    <g id="text_21">
     <!-- 0.5 -->
     <g transform="translate(25.307396 85.857297)scale(0.1 -0.1)">
      <use xlink:href="#SimHei-30"/>
      <use xlink:href="#SimHei-2e" x="50"/>
      <use xlink:href="#SimHei-35" x="100"/>
     </g>
    </g>
   </g>
  </g>
  <g id="axes_1">
   <g id="line2d_22">
    <defs>
     <path id="m441ee519ff" d="M 0 1.5 
C 0.397805 1.5 0.77937 1.341951 1.06066 1.06066 
C 1.341951 0.77937 1.5 0.397805 1.5 0 
C 1.5 -0.397805 1.341951 -0.77937 1.06066 -1.06066 
C 0.77937 -1.341951 0.397805 -1.5 0 -1.5 
C -0.397805 -1.5 -0.77937 -1.341951 -1.06066 -1.06066 
C -1.341951 -0.77937 -1.5 -0.397805 -1.5 0 
C -1.5 0.397805 -1.341951 0.77937 -1.06066 1.06066 
C -0.77937 1.341951 -0.397805 1.5 0 1.5 
z
" style="stroke: #4682b4"/>
    </defs>
    <g clip-path="url(#p883b08c469)">
     <use xlink:href="#m441ee519ff" x="254.264665" y="156.305691" style="fill: #4682b4; stroke: #4682b4"/>
     <use xlink:href="#m441ee519ff" x="139.237738" y="106.71818" style="fill: #4682b4; stroke: #4682b4"/>
     <use xlink:href="#m441ee519ff" x="122.452636" y="156.362773" style="fill: #4682b4; stroke: #4682b4"/>
     <use xlink:href="#m441ee519ff" x="131.022352" y="119.080417" style="fill: #4682b4; stroke: #4682b4"/>
     <use xlink:href="#m441ee519ff" x="155.403438" y="156.329526" style="fill: #4682b4; stroke: #4682b4"/>
     <use xlink:href="#m441ee519ff" x="180.033955" y="70.03487" style="fill: #4682b4; stroke: #4682b4"/>
     <use xlink:href="#m441ee519ff" x="147.244453" y="143.860945" style="fill: #4682b4; stroke: #4682b4"/>
     <use xlink:href="#m441ee519ff" x="213.048491" y="143.825246" style="fill: #4682b4; stroke: #4682b4"/>
     <use xlink:href="#m441ee519ff" x="204.770196" y="131.444278" style="fill: #4682b4; stroke: #4682b4"/>
     <use xlink:href="#m441ee519ff" x="171.936489" y="156.296963" style="fill: #4682b4; stroke: #4682b4"/>
     <use xlink:href="#m441ee519ff" x="204.972107" y="181.35623" style="fill: #4682b4; stroke: #4682b4"/>
     <use xlink:href="#m441ee519ff" x="237.793675" y="156.336387" style="fill: #4682b4; stroke: #4682b4"/>
     <use xlink:href="#m441ee519ff" x="171.930682" y="57.782031" style="fill: #4682b4; stroke: #4682b4"/>
     <use xlink:href="#m441ee519ff" x="188.319529" y="106.700881" style="fill: #4682b4; stroke: #4682b4"/>
     <use xlink:href="#m441ee519ff" x="229.68492" y="168.836659" style="fill: #4682b4; stroke: #4682b4"/>
     <use xlink:href="#m441ee519ff" x="171.934112" y="131.431525" style="fill: #4682b4; stroke: #4682b4"/>
     <use xlink:href="#m441ee519ff" x="147.372303" y="119.108332" style="fill: #4682b4; stroke: #4682b4"/>
     <use xlink:href="#m441ee519ff" x="196.452984" y="119.054185" style="fill: #4682b4; stroke: #4682b4"/>
     <use xlink:href="#m441ee519ff" x="171.906671" y="82.182795" style="fill: #4682b4; stroke: #4682b4"/>
     <use xlink:href="#m441ee519ff" x="138.953604" y="156.331718" style="fill: #4682b4; stroke: #4682b4"/>
     <use xlink:href="#m441ee519ff" x="196.552064" y="168.832806" style="fill: #4682b4; stroke: #4682b4"/>
     <use xlink:href="#m441ee519ff" x="163.831389" y="45.648303" style="fill: #4682b4; stroke: #4682b4"/>
     <use xlink:href="#m441ee519ff" x="163.717518" y="119.029096" style="fill: #4682b4; stroke: #4682b4"/>
     <use xlink:href="#m441ee519ff" x="221.499057" y="181.356689" style="fill: #4682b4; stroke: #4682b4"/>
     <use xlink:href="#m441ee519ff" x="163.780151" y="168.792158" style="fill: #4682b4; stroke: #4682b4"/>
     <use xlink:href="#m441ee519ff" x="262.658372" y="168.815589" style="fill: #4682b4; stroke: #4682b4"/>
     <use xlink:href="#m441ee519ff" x="147.170732" y="168.815394" style="fill: #4682b4; stroke: #4682b4"/>
     <use xlink:href="#m441ee519ff" x="122.643024" y="131.478744" style="fill: #4682b4; stroke: #4682b4"/>
     <use xlink:href="#m441ee519ff" x="122.857032" y="106.715487" style="fill: #4682b4; stroke: #4682b4"/>
     <use xlink:href="#m441ee519ff" x="106.272993" y="131.431585" style="fill: #4682b4; stroke: #4682b4"/>
     <use xlink:href="#m441ee519ff" x="147.41976" y="94.383381" style="fill: #4682b4; stroke: #4682b4"/>
     <use xlink:href="#m441ee519ff" x="180.017047" y="45.648421" style="fill: #4682b4; stroke: #4682b4"/>
     <use xlink:href="#m441ee519ff" x="97.937494" y="143.855449" style="fill: #4682b4; stroke: #4682b4"/>
     <use xlink:href="#m441ee519ff" x="171.926709" y="181.356513" style="fill: #4682b4; stroke: #4682b4"/>
     <use xlink:href="#m441ee519ff" x="213.368635" y="168.827279" style="fill: #4682b4; stroke: #4682b4"/>
     <use xlink:href="#m441ee519ff" x="196.476498" y="94.384646" style="fill: #4682b4; stroke: #4682b4"/>
     <use xlink:href="#m441ee519ff" x="114.203947" y="168.835521" style="fill: #4682b4; stroke: #4682b4"/>
     <use xlink:href="#m441ee519ff" x="220.991329" y="106.715471" style="fill: #4682b4; stroke: #4682b4"/>
     <use xlink:href="#m441ee519ff" x="81.189471" y="168.816216" style="fill: #4682b4; stroke: #4682b4"/>
     <use xlink:href="#m441ee519ff" x="180.205154" y="168.834329" style="fill: #4682b4; stroke: #4682b4"/>
     <use xlink:href="#m441ee519ff" x="114.578375" y="119.054281" style="fill: #4682b4; stroke: #4682b4"/>
     <use xlink:href="#m441ee519ff" x="271.072601" y="181.356207" style="fill: #4682b4; stroke: #4682b4"/>
     <use xlink:href="#m441ee519ff" x="188.40264" y="131.441128" style="fill: #4682b4; stroke: #4682b4"/>
     <use xlink:href="#m441ee519ff" x="246.018475" y="168.820539" style="fill: #4682b4; stroke: #4682b4"/>
     <use xlink:href="#m441ee519ff" x="196.416155" y="143.848911" style="fill: #4682b4; stroke: #4682b4"/>
     <use xlink:href="#m441ee519ff" x="163.813151" y="143.855512" style="fill: #4682b4; stroke: #4682b4"/>
     <use xlink:href="#m441ee519ff" x="139.317789" y="82.18283" style="fill: #4682b4; stroke: #4682b4"/>
     <use xlink:href="#m441ee519ff" x="138.886984" y="181.356329" style="fill: #4682b4; stroke: #4682b4"/>
     <use xlink:href="#m441ee519ff" x="229.514073" y="143.826286" style="fill: #4682b4; stroke: #4682b4"/>
     <use xlink:href="#m441ee519ff" x="105.873453" y="181.356533" style="fill: #4682b4; stroke: #4682b4"/>
     <use xlink:href="#m441ee519ff" x="72.775857" y="181.356207" style="fill: #4682b4; stroke: #4682b4"/>
     <use xlink:href="#m441ee519ff" x="155.429834" y="181.356426" style="fill: #4682b4; stroke: #4682b4"/>
     <use xlink:href="#m441ee519ff" x="89.586463" y="156.301386" style="fill: #4682b4; stroke: #4682b4"/>
     <use xlink:href="#m441ee519ff" x="204.854146" y="156.297589" style="fill: #4682b4; stroke: #4682b4"/>
     <use xlink:href="#m441ee519ff" x="155.593953" y="106.703695" style="fill: #4682b4; stroke: #4682b4"/>
     <use xlink:href="#m441ee519ff" x="212.842365" y="119.109768" style="fill: #4682b4; stroke: #4682b4"/>
     <use xlink:href="#m441ee519ff" x="130.80695" y="143.823029" style="fill: #4682b4; stroke: #4682b4"/>
     <use xlink:href="#m441ee519ff" x="229.270326" y="119.054173" style="fill: #4682b4; stroke: #4682b4"/>
     <use xlink:href="#m441ee519ff" x="147.495609" y="70.006347" style="fill: #4682b4; stroke: #4682b4"/>
     <use xlink:href="#m441ee519ff" x="163.878151" y="69.973128" style="fill: #4682b4; stroke: #4682b4"/>
     <use xlink:href="#m441ee519ff" x="131.091827" y="94.442805" style="fill: #4682b4; stroke: #4682b4"/>
     <use xlink:href="#m441ee519ff" x="245.906312" y="143.848351" style="fill: #4682b4; stroke: #4682b4"/>
     <use xlink:href="#m441ee519ff" x="122.335262" y="181.356811" style="fill: #4682b4; stroke: #4682b4"/>
     <use xlink:href="#m441ee519ff" x="89.343331" y="181.356259" style="fill: #4682b4; stroke: #4682b4"/>
     <use xlink:href="#m441ee519ff" x="97.686651" y="168.816501" style="fill: #4682b4; stroke: #4682b4"/>
     <use xlink:href="#m441ee519ff" x="155.451945" y="131.446067" style="fill: #4682b4; stroke: #4682b4"/>
     <use xlink:href="#m441ee519ff" x="180.079412" y="94.330653" style="fill: #4682b4; stroke: #4682b4"/>
     <use xlink:href="#m441ee519ff" x="130.8222" y="168.836684" style="fill: #4682b4; stroke: #4682b4"/>
     <use xlink:href="#m441ee519ff" x="188.166818" y="57.793094" style="fill: #4682b4; stroke: #4682b4"/>
     <use xlink:href="#m441ee519ff" x="212.758734" y="94.44611" style="fill: #4682b4; stroke: #4682b4"/>
     <use xlink:href="#m441ee519ff" x="114.401663" y="143.858208" style="fill: #4682b4; stroke: #4682b4"/>
     <use xlink:href="#m441ee519ff" x="238.048031" y="181.356384" style="fill: #4682b4; stroke: #4682b4"/>
     <use xlink:href="#m441ee519ff" x="254.560257" y="181.356301" style="fill: #4682b4; stroke: #4682b4"/>
     <use xlink:href="#m441ee519ff" x="204.554901" y="82.219006" style="fill: #4682b4; stroke: #4682b4"/>
     <use xlink:href="#m441ee519ff" x="237.57487" y="131.431504" style="fill: #4682b4; stroke: #4682b4"/>
     <use xlink:href="#m441ee519ff" x="180.083581" y="143.81308" style="fill: #4682b4; stroke: #4682b4"/>
     <use xlink:href="#m441ee519ff" x="155.681818" y="57.794015" style="fill: #4682b4; stroke: #4682b4"/>
     <use xlink:href="#m441ee519ff" x="171.924229" y="33.586908" style="fill: #4682b4; stroke: #4682b4"/>
     <use xlink:href="#m441ee519ff" x="204.647809" y="106.715497" style="fill: #4682b4; stroke: #4682b4"/>
     <use xlink:href="#m441ee519ff" x="139.064391" y="131.441205" style="fill: #4682b4; stroke: #4682b4"/>
     <use xlink:href="#m441ee519ff" x="155.606889" y="82.220736" style="fill: #4682b4; stroke: #4682b4"/>
     <use xlink:href="#m441ee519ff" x="106.141446" y="156.305983" style="fill: #4682b4; stroke: #4682b4"/>
     <use xlink:href="#m441ee519ff" x="221.153389" y="131.417519" style="fill: #4682b4; stroke: #4682b4"/>
     <use xlink:href="#m441ee519ff" x="188.39526" y="181.356297" style="fill: #4682b4; stroke: #4682b4"/>
     <use xlink:href="#m441ee519ff" x="171.870146" y="106.703413" style="fill: #4682b4; stroke: #4682b4"/>
     <use xlink:href="#m441ee519ff" x="188.517496" y="156.332763" style="fill: #4682b4; stroke: #4682b4"/>
     <use xlink:href="#m441ee519ff" x="180.035674" y="119.013955" style="fill: #4682b4; stroke: #4682b4"/>
     <use xlink:href="#m441ee519ff" x="221.376987" y="156.317418" style="fill: #4682b4; stroke: #4682b4"/>
     <use xlink:href="#m441ee519ff" x="188.218913" y="82.266877" style="fill: #4682b4; stroke: #4682b4"/>
     <use xlink:href="#m441ee519ff" x="196.360502" y="70.006113" style="fill: #4682b4; stroke: #4682b4"/>
     <use xlink:href="#m441ee519ff" x="163.752917" y="94.295744" style="fill: #4682b4; stroke: #4682b4"/>
    </g>
   </g>
   <g id="legend_1">
    <g id="patch_6">
     <path d="M 196.989958 28.45 
L 288.989958 28.45 
Q 290.989958 28.45 290.989958 26.45 
L 290.989958 14.2 
Q 290.989958 12.2 288.989958 12.2 
L 196.989958 12.2 
Q 194.989958 12.2 194.989958 14.2 
L 194.989958 26.45 
Q 194.989958 28.45 196.989958 28.45 
z
" style="fill: #ffffff; opacity: 0.8; stroke: #cccccc; stroke-linejoin: miter"/>
    </g>
    <g id="line2d_23">
     <g>
      <use xlink:href="#m441ee519ff" x="208.989958" y="19.7" style="fill: #4682b4; stroke: #4682b4"/>
     </g>
    </g>
    <g id="text_22">
     <!-- Pareto Front -->
     <g transform="translate(226.989958 23.2)scale(0.1 -0.1)">
      <defs>
       <path id="SimHei-50" d="M 2950 3100 
Q 2950 2500 2600 2150 
Q 2250 1800 1625 1800 
L 900 1800 
L 900 125 
L 325 125 
L 325 4400 
L 1625 4400 
Q 2250 4400 2600 4050 
Q 2950 3700 2950 3100 
z
M 2375 3100 
Q 2375 3575 2150 3750 
Q 1925 3925 1475 3925 
L 900 3925 
L 900 2275 
L 1475 2275 
Q 1925 2275 2150 2450 
Q 2375 2625 2375 3100 
z
" transform="scale(0.015625)"/>
       <path id="SimHei-61" d="M 2875 125 
L 2275 125 
Q 2225 175 2200 262 
Q 2175 350 2175 475 
Q 2000 275 1750 175 
Q 1500 75 1225 75 
Q 825 75 550 275 
Q 275 475 275 850 
Q 275 1225 525 1450 
Q 775 1675 1300 1750 
Q 1650 1800 1912 1875 
Q 2175 1950 2175 2075 
Q 2175 2225 2062 2375 
Q 1950 2525 1575 2525 
Q 1275 2525 1137 2412 
Q 1000 2300 950 2100 
L 400 2100 
Q 450 2500 762 2737 
Q 1075 2975 1575 2975 
Q 2125 2975 2400 2725 
Q 2675 2475 2675 2025 
L 2675 650 
Q 2675 500 2725 375 
Q 2775 250 2875 125 
z
M 2175 1050 
L 2175 1550 
Q 2025 1500 1887 1462 
Q 1750 1425 1425 1375 
Q 1050 1325 937 1200 
Q 825 1075 825 900 
Q 825 750 937 637 
Q 1050 525 1275 525 
Q 1500 525 1762 650 
Q 2025 775 2175 1050 
z
" transform="scale(0.015625)"/>
       <path id="SimHei-72" d="M 2500 2425 
Q 2025 2500 1700 2287 
Q 1375 2075 1150 1550 
L 1150 125 
L 650 125 
L 650 2925 
L 1150 2925 
L 1150 2200 
Q 1375 2600 1712 2787 
Q 2050 2975 2500 2975 
L 2500 2425 
z
" transform="scale(0.015625)"/>
       <path id="SimHei-65" d="M 2850 1075 
Q 2800 625 2450 350 
Q 2100 75 1625 75 
Q 1025 75 637 462 
Q 250 850 250 1525 
Q 250 2200 637 2587 
Q 1025 2975 1625 2975 
Q 2150 2975 2487 2637 
Q 2825 2300 2825 1525 
L 800 1525 
Q 800 975 1037 750 
Q 1275 525 1625 525 
Q 1900 525 2075 662 
Q 2250 800 2300 1075 
L 2850 1075 
z
M 2250 1925 
Q 2200 2275 2025 2412 
Q 1850 2550 1575 2550 
Q 1325 2550 1125 2412 
Q 925 2275 825 1925 
L 2250 1925 
z
" transform="scale(0.015625)"/>
       <path id="SimHei-74" d="M 2750 200 
Q 2625 150 2462 112 
Q 2300 75 2025 75 
Q 1575 75 1300 325 
Q 1025 575 1025 1025 
L 1025 2525 
L 175 2525 
L 175 2925 
L 1025 2925 
L 1025 3900 
L 1525 3900 
L 1525 2925 
L 2550 2925 
L 2550 2525 
L 1525 2525 
L 1525 1000 
Q 1525 800 1625 662 
Q 1725 525 2000 525 
Q 2275 525 2450 575 
Q 2625 625 2750 700 
L 2750 200 
z
" transform="scale(0.015625)"/>
       <path id="SimHei-6f" d="M 2925 1525 
Q 2925 875 2525 475 
Q 2125 75 1575 75 
Q 1025 75 625 475 
Q 225 875 225 1525 
Q 225 2175 625 2575 
Q 1025 2975 1575 2975 
Q 2125 2975 2525 2575 
Q 2925 2175 2925 1525 
z
M 2375 1525 
Q 2375 2025 2125 2275 
Q 1875 2525 1575 2525 
Q 1275 2525 1025 2275 
Q 775 2025 775 1525 
Q 775 1025 1025 775 
Q 1275 525 1575 525 
Q 1875 525 2125 775 
Q 2375 1025 2375 1525 
z
" transform="scale(0.015625)"/>
       <path id="SimHei-20" transform="scale(0.015625)"/>
       <path id="SimHei-6e" d="M 2800 125 
L 2300 125 
L 2300 1925 
Q 2300 2225 2150 2400 
Q 2000 2575 1750 2575 
Q 1425 2575 1137 2237 
Q 850 1900 850 1400 
L 850 125 
L 350 125 
L 350 2925 
L 850 2925 
L 850 2400 
Q 1050 2675 1287 2825 
Q 1525 2975 1900 2975 
Q 2350 2975 2575 2725 
Q 2800 2475 2800 2100 
L 2800 125 
z
" transform="scale(0.015625)"/>
      </defs>
      <use xlink:href="#SimHei-50"/>
      <use xlink:href="#SimHei-61" x="50"/>
      <use xlink:href="#SimHei-72" x="100"/>
      <use xlink:href="#SimHei-65" x="150"/>
      <use xlink:href="#SimHei-74" x="200"/>
      <use xlink:href="#SimHei-6f" x="250"/>
      <use xlink:href="#SimHei-20" x="300"/>
      <use xlink:href="#SimHei-46" x="350"/>
      <use xlink:href="#SimHei-72" x="400"/>
      <use xlink:href="#SimHei-6f" x="450"/>
      <use xlink:href="#SimHei-6e" x="500"/>
      <use xlink:href="#SimHei-74" x="550"/>
     </g>
    </g>
   </g>
  </g>
 </g>
 <defs>
  <clipPath id="p883b08c469">
   <rect x="40.965958" y="7.2" width="255.024" height="255.024"/>
  </clipPath>
 </defs>
</svg>
